#!OML:ASF H:\ManfredETheater\Project 1\Capture day 1\Session 1\subject.ASF
:FULLY-SPECIFIED
:DEGREES
140
root -8.77986 15.8426 33.718 -153.878 18.5813 183.759
lowerback 13.7996 3.53599 8.02874
upperback -2.39727 7.05515 4.8594
thorax -10.0845 3.24418 -0.806793
lowerneck -15.943 3.15489 2.05988
upperneck 0.0905385 5.10567 -11.3976
head 2.96653 2.35809 -3.44488
rclavicle 1.51076e-014 -4.6118e-014
rhumerus -24.9614 21.9797 -92.7187
rradius 58.3074
rwrist -0.737171
rhand -22.1863 -5.39144
rfingers 7.12502
rthumb 4.22888 -35.3292
lclavicle 1.51076e-014 -4.6118e-014
lhumerus -43.3782 -10.7849 97.4422
lradius 50.3155
lwrist 0.0333572
lhand -18.3582 -1.2282
lfingers 7.12502
lthumb 7.92466 28.6033
rfemur -9.1093 -10.6285 22.748
rtibia 26.8978
rfoot -27.6267 -19.4839
rtoes -40.8401
lfemur -66.3739 17.556 -21.8622
ltibia 80.769
lfoot -19.0177 -21.9582
ltoes -7.99882
141
root -8.75587 15.797 33.5071 -153.627 17.9508 183.761
lowerback 13.6902 3.48476 8.12393
upperback -2.5117 7.015 4.88888
thorax -10.1462 3.22031 -0.814092
lowerneck -15.931 3.0614 2.08576
upperneck -0.0664201 4.97429 -11.4014
head 2.90894 2.30461 -3.4616
rclavicle -1.02573e-013 -7.63333e-014
rhumerus -25.4906 21.9132 -92.7892
rradius 60.0325
rwrist -0.745266
rhand -22.4105 -4.64889
rfingers 7.12502
rthumb 4.01236 -34.5909
lclavicle -1.02573e-013 -7.63333e-014
lhumerus -44.2763 -10.9774 97.4224
lradius 51.6385
lwrist 0.137849
lhand -18.1616 -1.83294
lfingers 7.12502
lthumb 8.11437 27.9913
rfemur -8.39091 -10.5601 22.6746
rtibia 26.6707
rfoot -27.2669 -19.4451
rtoes -41.4907
lfemur -66.5733 17.4642 -22.4846
ltibia 81.1789
lfoot -18.3547 -22.7218
ltoes -7.09666
142
root -8.73238 15.7541 33.288 -153.407 17.282 183.725
lowerback 13.5653 3.41914 8.21069
upperback -2.62478 6.94998 4.90984
thorax -10.1987 3.18478 -0.819556
lowerneck -15.9196 2.96761 2.11988
upperneck -0.227626 4.83981 -11.3957
head 2.84974 2.24997 -3.47688
rclavicle 1.03368e-014 -8.90555e-014
rhumerus -26.0604 21.6996 -92.8094
rradius 61.624
rwrist -0.65974
rhand -22.6993 -3.77676
rfingers 7.12502
rthumb 3.73349 -33.7238
lclavicle 1.03368e-014 -8.90555e-014
lhumerus -45.1428 -11.0944 97.3852
lradius 52.9637
lwrist 0.263133
lhand -18.0613 -2.49154
lfingers 7.12502
lthumb 8.21115 27.3289
rfemur -7.6673 -10.4365 22.5691
rtibia 26.5273
rfoot -26.7701 -19.3983
rtoes -42.1963
lfemur -66.5749 17.2882 -23.1145
ltibia 81.4922
lfoot -17.6249 -23.2289
ltoes -5.52077
143
root -8.70943 15.7146 33.0604 -153.217 16.5811 183.662
lowerback 13.425 3.33941 8.29387
upperback -2.73794 6.86272 4.92771
thorax -10.2436 3.13897 -0.820763
lowerneck -15.8996 2.87505 2.15794
upperneck -0.381095 4.70456 -11.3766
head 2.79108 2.19465 -3.4887
rclavicle 3.73715e-014 1.31993e-013
rhumerus -26.6816 21.3379 -92.7772
rradius 63.0578
rwrist -0.509611
rhand -23.0611 -2.85331
rfingers 7.12502
rthumb 3.38409 -32.8062
lclavicle 3.73715e-014 1.31993e-013
lhumerus -45.9615 -11.1245 97.3319
lradius 54.2573
lwrist 0.394762
lhand -18.0452 -3.13328
lfingers 7.12502
lthumb 8.22669 26.6865
rfemur -6.9531 -10.2575 22.4439
rtibia 26.5
rfoot -26.1268 -19.3344
rtoes -42.9292
lfemur -66.3505 17.0421 -23.7195
ltibia 81.7132
lfoot -16.9926 -23.4
ltoes -3.44049
144
root -8.68717 15.6788 32.8244 -153.053 15.8565 183.588
lowerback 13.2725 3.2487 8.38145
upperback -2.84759 6.7595 4.94534
thorax -10.2782 3.08585 -0.820505
lowerneck -15.8846 2.78466 2.19372
upperneck -0.510783 4.57145 -11.3374
head 2.73975 2.13898 -3.49353
rclavicle -5.56597e-015 1.59028e-015
rhumerus -27.3431 20.8279 -92.6862
rradius 64.3061
rwrist -0.332136
rhand -23.5115 -1.96153
rfingers 7.12502
rthumb 2.94911 -31.9209
lclavicle -5.56597e-015 1.59028e-015
lhumerus -46.7059 -11.0822 97.266
lradius 55.4954
lwrist 0.523034
lhand -18.1108 -3.71235
lfingers 7.12502
lthumb 8.16338 26.11
rfemur -6.28376 -10.0501 22.3145
rtibia 26.6391
rfoot -25.264 -19.3017
rtoes -43.7946
lfemur -65.876 16.7407 -24.268
ltibia 81.8383
lfoot -16.5871 -23.2462
ltoes -1.00246
145
root -8.66594 15.6467 32.5802 -152.918 15.1195 183.516
lowerback 13.1184 3.14927 8.47923
upperback -2.95403 6.64647 4.9656
thorax -10.3085 3.02796 -0.821054
lowerneck -15.8789 2.69688 2.22304
upperneck -0.601164 4.44206 -11.275
head 2.70105 2.08272 -3.48953
rclavicle -5.24792e-014 -7.4743e-014
rhumerus -28.0622 20.1827 -92.5319
rradius 65.3646
rwrist -0.157142
rhand -24.056 -1.1755
rfingers 7.12502
rthumb 2.42324 -31.1415
lclavicle -5.24792e-014 -7.4743e-014
lhumerus -47.3574 -10.9707 97.1887
lradius 56.6602
lwrist 0.630785
lhand -18.2181 -4.18297
lfingers 7.12502
lthumb 8.05979 25.6433
rfemur -5.68055 -9.7832 22.1799
rtibia 27.0098
rfoot -24.3258 -19.1372
rtoes -44.4451
lfemur -65.1354 16.3979 -24.7276
ltibia 81.8581
lfoot -16.5577 -22.7765
ltoes 1.52555
